<svg width="277" height="104" viewBox="0 0 277 104" fill="none" xmlns="http://www.w3.org/2000/svg">
<path d="M167 65.0563C145.784 50.2654 116.213 41 83.5 41C50.787 41 21.216 50.2126 0 65.0563C63.0518 45.3633 73.5588 60.2492 73.5588 66.229C73.5588 72.4094 69.5783 76.2551 60.2635 76.2551C50.9486 76.2551 43.9676 68.8596 42.1289 60.3443L25.146 62.9433C27.0756 78.3363 38.3908 90 58.8895 90C80.2267 90 91.3802 79.4351 91.3802 64.0104C91.4632 60.42 90.7726 56.8562 89.3596 53.5828C92.6128 53.5828 95.8457 53.7518 99.0483 53.8997V88.7639H116.516V55.2098C133.593 56.8969 150.49 60.1924 167 65.0563Z" fill="white"/>
<path d="M108.626 3L82.3848 14.3348C77.4246 7.00301 70.2837 3 58.7506 3C39.5593 3 29 14.0715 29 28.7457C29 35.0662 30.7041 40.5229 36.1004 45C46.2103 42.0025 56.5678 39.9922 67.0378 38.9955C65.8814 38.6689 64.6947 38.3529 63.4369 38.0369C50.3417 34.8766 46.893 32.5169 46.893 26.6599C46.893 20.8029 52.0763 16.1257 59.1868 16.4101C71.2574 16.8315 71.4197 28.8932 72.2616 34.076L99.9024 22.6358V38.8164C105.785 39.3306 111.638 40.1534 117.44 41.2814V22.6358L145 34.076V18.7171L108.626 3Z" fill="white"/>
<path d="M178.392 27.216L176.216 28.688C176.707 29.6693 177.336 30.5973 178.104 31.472C178.893 32.3253 179.8 33.0187 180.824 33.552C181.869 34.064 183 34.32 184.216 34.32C185.112 34.32 185.965 34.1707 186.776 33.872C187.608 33.5733 188.344 33.1467 188.984 32.592C189.645 32.0373 190.157 31.3653 190.52 30.576C190.904 29.7867 191.096 28.9013 191.096 27.92C191.096 26.896 190.915 26.0213 190.552 25.296C190.189 24.5493 189.72 23.92 189.144 23.408C188.589 22.8747 187.981 22.4373 187.32 22.096C186.659 21.7547 186.029 21.4773 185.432 21.264C184.131 20.816 183.096 20.368 182.328 19.92C181.581 19.4507 181.048 18.96 180.728 18.448C180.408 17.9147 180.248 17.3387 180.248 16.72C180.248 15.9947 180.525 15.344 181.08 14.768C181.635 14.1707 182.52 13.872 183.736 13.872C184.611 13.872 185.347 14.0427 185.944 14.384C186.563 14.7253 187.085 15.1627 187.512 15.696C187.939 16.2293 188.291 16.7733 188.568 17.328L190.904 15.984C190.541 15.1947 190.04 14.448 189.4 13.744C188.76 13.0187 187.981 12.432 187.064 11.984C186.168 11.5147 185.112 11.28 183.896 11.28C182.637 11.28 181.517 11.536 180.536 12.048C179.555 12.5387 178.787 13.2213 178.232 14.096C177.677 14.9707 177.4 15.9627 177.4 17.072C177.4 18.096 177.592 18.96 177.976 19.664C178.381 20.368 178.893 20.9653 179.512 21.456C180.131 21.9253 180.781 22.32 181.464 22.64C182.147 22.9387 182.765 23.184 183.32 23.376C184.173 23.6747 184.973 24.016 185.72 24.4C186.488 24.7627 187.107 25.2427 187.576 25.84C188.045 26.4373 188.28 27.2373 188.28 28.24C188.28 29.264 187.917 30.1067 187.192 30.768C186.467 31.4293 185.507 31.76 184.312 31.76C183.416 31.76 182.616 31.568 181.912 31.184C181.208 30.8 180.568 30.2667 179.992 29.584C179.437 28.9013 178.904 28.112 178.392 27.216ZM198.195 18.864L205.491 31.92L212.787 18.864L214.451 34H217.171L214.451 10.48L205.491 26.704L196.531 10.48L193.811 34H196.531L198.195 18.864ZM223.141 27.28H234.982L234.022 24.72H224.102L223.141 27.28ZM228.998 16.656L232.838 25.68L233.094 26.32L236.358 34H239.398L228.998 10.48L218.598 34H221.638L224.966 26.128L225.222 25.552L228.998 16.656ZM246.123 22.96L253.803 34H257.163L249.163 22.96H246.123ZM242.123 11.6V34H244.843V11.6H242.123ZM243.627 14H248.203C249.163 14 250.005 14.1707 250.731 14.512C251.477 14.8533 252.053 15.344 252.459 15.984C252.885 16.624 253.099 17.4027 253.099 18.32C253.099 19.2373 252.885 20.016 252.459 20.656C252.053 21.296 251.477 21.7867 250.731 22.128C250.005 22.4693 249.163 22.64 248.203 22.64H243.627V25.04H248.203C249.653 25.04 250.944 24.7733 252.075 24.24C253.227 23.6853 254.133 22.9067 254.795 21.904C255.477 20.88 255.819 19.6853 255.819 18.32C255.819 16.9333 255.477 15.7387 254.795 14.736C254.133 13.7333 253.227 12.9653 252.075 12.432C250.944 11.8773 249.653 11.6 248.203 11.6H243.627V14ZM257.789 14.16H263.549V34H266.269V14.16H272.029V11.6H257.789V14.16Z" fill="white"/>
<path d="M180.5 75.4V91H182.1V75.4H180.5ZM191.109 78C191.109 78.2933 191.216 78.5533 191.429 78.78C191.656 78.9933 191.916 79.1 192.209 79.1C192.516 79.1 192.776 78.9933 192.989 78.78C193.203 78.5533 193.309 78.2933 193.309 78C193.309 77.6933 193.203 77.4333 192.989 77.22C192.776 77.0067 192.516 76.9 192.209 76.9C191.916 76.9 191.656 77.0067 191.429 77.22C191.216 77.4333 191.109 77.6933 191.109 78ZM191.409 81.8V91H193.009V81.8H191.409ZM214.905 85.2C214.905 84.44 214.785 83.7933 214.545 83.26C214.318 82.7133 213.985 82.3 213.545 82.02C213.105 81.74 212.571 81.6 211.945 81.6C211.331 81.6 210.785 81.7467 210.305 82.04C209.825 82.32 209.425 82.7467 209.105 83.32C208.891 82.7733 208.551 82.3533 208.085 82.06C207.631 81.7533 207.085 81.6 206.445 81.6C205.871 81.6 205.371 81.7267 204.945 81.98C204.531 82.2333 204.185 82.62 203.905 83.14V81.8H202.305V91H203.905V85.4C203.905 84.92 203.991 84.5067 204.165 84.16C204.338 83.8133 204.585 83.5533 204.905 83.38C205.225 83.1933 205.605 83.1 206.045 83.1C206.645 83.1 207.085 83.2867 207.365 83.66C207.658 84.0333 207.805 84.6133 207.805 85.4V91H209.405V85.4C209.405 84.92 209.491 84.5067 209.665 84.16C209.838 83.8133 210.085 83.5533 210.405 83.38C210.725 83.1933 211.105 83.1 211.545 83.1C212.145 83.1 212.585 83.2867 212.865 83.66C213.158 84.0333 213.305 84.6133 213.305 85.4V91H214.905V85.2ZM223.91 78C223.91 78.2933 224.017 78.5533 224.23 78.78C224.457 78.9933 224.717 79.1 225.01 79.1C225.317 79.1 225.577 78.9933 225.79 78.78C226.003 78.5533 226.11 78.2933 226.11 78C226.11 77.6933 226.003 77.4333 225.79 77.22C225.577 77.0067 225.317 76.9 225.01 76.9C224.717 76.9 224.457 77.0067 224.23 77.22C224.017 77.4333 223.91 77.6933 223.91 78ZM224.21 81.8V91H225.81V81.8H224.21ZM233.705 81.8V83.3H238.305V81.8H233.705ZM235.205 78.6V91H236.805V78.6H235.205ZM249.47 91.2C250.457 91.2 251.31 91.0067 252.03 90.62C252.763 90.22 253.37 89.6333 253.85 88.86L252.55 88.04C252.217 88.6 251.81 89.02 251.33 89.3C250.85 89.5667 250.297 89.7 249.67 89.7C249.043 89.7 248.51 89.5667 248.07 89.3C247.63 89.0333 247.297 88.6467 247.07 88.14C246.843 87.6333 246.73 87.02 246.73 86.3C246.743 85.5933 246.863 85 247.09 84.52C247.33 84.0267 247.663 83.6533 248.09 83.4C248.53 83.1333 249.057 83 249.67 83C250.19 83 250.643 83.1133 251.03 83.34C251.417 83.5667 251.717 83.88 251.93 84.28C252.157 84.68 252.27 85.1533 252.27 85.7C252.27 85.7933 252.25 85.9133 252.21 86.06C252.17 86.1933 252.13 86.2933 252.09 86.36L252.73 85.44H246.13V86.8H253.99C253.99 86.7733 253.99 86.7133 253.99 86.62C254.003 86.5133 254.01 86.4133 254.01 86.32C254.01 85.3467 253.837 84.5067 253.49 83.8C253.143 83.0933 252.643 82.5533 251.99 82.18C251.35 81.7933 250.577 81.6 249.67 81.6C248.763 81.6 247.963 81.8 247.27 82.2C246.59 82.6 246.057 83.16 245.67 83.88C245.297 84.6 245.11 85.44 245.11 86.4C245.11 87.3467 245.29 88.18 245.65 88.9C246.023 89.62 246.537 90.1867 247.19 90.6C247.857 91 248.617 91.2 249.47 91.2ZM269.103 75.4V91H270.703V75.4H269.103ZM261.403 86.4C261.403 87.3867 261.61 88.24 262.023 88.96C262.436 89.68 262.99 90.2333 263.683 90.62C264.376 91.0067 265.136 91.2 265.963 91.2C266.736 91.2 267.41 91.0067 267.983 90.62C268.556 90.2333 269.003 89.68 269.323 88.96C269.656 88.24 269.823 87.3867 269.823 86.4C269.823 85.4 269.656 84.5467 269.323 83.84C269.003 83.12 268.556 82.5667 267.983 82.18C267.41 81.7933 266.736 81.6 265.963 81.6C265.136 81.6 264.376 81.7933 263.683 82.18C262.99 82.5667 262.436 83.12 262.023 83.84C261.61 84.5467 261.403 85.4 261.403 86.4ZM263.023 86.4C263.023 85.6933 263.163 85.0933 263.443 84.6C263.736 84.1067 264.123 83.7333 264.603 83.48C265.083 83.2267 265.603 83.1 266.163 83.1C266.63 83.1 267.09 83.2267 267.543 83.48C267.996 83.7333 268.37 84.1067 268.663 84.6C268.956 85.0933 269.103 85.6933 269.103 86.4C269.103 87.1067 268.956 87.7067 268.663 88.2C268.37 88.6933 267.996 89.0667 267.543 89.32C267.09 89.5733 266.63 89.7 266.163 89.7C265.603 89.7 265.083 89.5733 264.603 89.32C264.123 89.0667 263.736 88.6933 263.443 88.2C263.163 87.7067 263.023 87.1067 263.023 86.4Z" fill="white"/>
<rect x="175" y="38" width="98" height="35" fill="white"/>
<path d="M177.32 48.16H183.08V68H185.8V48.16H191.56V45.6H177.32V48.16ZM198.435 56.96L206.115 68H209.475L201.475 56.96H198.435ZM194.435 45.6V68H197.155V45.6H194.435ZM195.939 48H200.515C201.475 48 202.318 48.1707 203.043 48.512C203.79 48.8533 204.366 49.344 204.771 49.984C205.198 50.624 205.411 51.4027 205.411 52.32C205.411 53.2373 205.198 54.016 204.771 54.656C204.366 55.296 203.79 55.7867 203.043 56.128C202.318 56.4693 201.475 56.64 200.515 56.64H195.939V59.04H200.515C201.966 59.04 203.256 58.7733 204.387 58.24C205.539 57.6853 206.446 56.9067 207.107 55.904C207.79 54.88 208.131 53.6853 208.131 52.32C208.131 50.9333 207.79 49.7387 207.107 48.736C206.446 47.7333 205.539 46.9653 204.387 46.432C203.256 45.8773 201.966 45.6 200.515 45.6H195.939V48ZM214.485 61.28H226.325L225.365 58.72H215.445L214.485 61.28ZM220.341 50.656L224.181 59.68L224.437 60.32L227.701 68H230.741L220.341 44.48L209.941 68H212.981L216.309 60.128L216.565 59.552L220.341 50.656ZM233.466 45.6V68H236.186V45.6H233.466ZM240.186 68C242.362 68 244.293 67.5307 245.978 66.592C247.664 65.6533 248.986 64.352 249.946 62.688C250.906 61.0027 251.386 59.04 251.386 56.8C251.386 54.56 250.906 52.608 249.946 50.944C248.986 49.2587 247.664 47.9467 245.978 47.008C244.293 46.0693 242.362 45.6 240.186 45.6H234.97V48.32H240.186C241.445 48.32 242.597 48.5227 243.642 48.928C244.688 49.312 245.584 49.8773 246.33 50.624C247.077 51.3493 247.653 52.2347 248.058 53.28C248.464 54.3253 248.666 55.4987 248.666 56.8C248.666 58.1013 248.464 59.2747 248.058 60.32C247.653 61.3653 247.077 62.2613 246.33 63.008C245.584 63.7333 244.688 64.2987 243.642 64.704C242.597 65.088 241.445 65.28 240.186 65.28H234.97V68H240.186ZM256.72 68H268.016V65.44H256.72V68ZM256.72 48.16H268.016V45.6H256.72V48.16ZM256.72 57.12H267.376V54.56H256.72V57.12ZM255.216 45.6V68H257.936V45.6H255.216Z" fill="#ACAFBC"/>
</svg>
