<svg width="18" height="30" viewBox="0 0 18 30" fill="none" xmlns="http://www.w3.org/2000/svg">
<path d="M14.25 0H3.75C2.75544 0 1.80161 0.395085 1.09835 1.09834C0.395085 1.8016 0 2.75544 0 3.75V26.25C0 27.2445 0.395085 28.1983 1.09835 28.9017C1.80161 29.6049 2.75544 30 3.75 30H14.25C15.2445 30 16.1983 29.6049 16.9017 28.9017C17.6049 28.1983 18 27.2445 18 26.25V3.75C18 2.75544 17.6049 1.8016 16.9017 1.09834C16.1983 0.395085 15.2445 0 14.25 0ZM15 26.25C14.9997 26.4489 14.9206 26.6394 14.7801 26.7801C14.6394 26.9206 14.4489 26.9997 14.25 27H3.75C3.55116 26.9997 3.36054 26.9206 3.21993 26.7801C3.07933 26.6394 3.00024 26.4489 3 26.25V3.75C3.00024 3.55116 3.07933 3.36054 3.21993 3.21993C3.36054 3.07933 3.55116 3.00024 3.75 3H14.25C14.4489 3.00024 14.6394 3.07933 14.7801 3.21993C14.9206 3.36054 14.9997 3.55116 15 3.75V26.25ZM9 22.5C8.7033 22.5 8.41335 22.5879 8.1666 22.7528C7.92 22.9176 7.7277 23.1519 7.61415 23.4259C7.5006 23.7 7.4709 24.0017 7.5288 24.2927C7.5867 24.5837 7.7295 24.8509 7.93935 25.0606C8.14905 25.2705 8.41635 25.4133 8.70735 25.4712C8.99835 25.5291 9.3 25.4994 9.57405 25.3859C9.8481 25.2723 10.0824 25.08 10.2472 24.8334C10.4121 24.5866 10.5 24.2967 10.5 24C10.5 23.6022 10.3419 23.2206 10.0606 22.9394C9.7794 22.6581 9.3978 22.5 9 22.5Z" fill="black"/>
</svg>
