<svg width="26" height="26" viewBox="0 0 26 26" fill="none" xmlns="http://www.w3.org/2000/svg">
<path fill-rule="evenodd" clip-rule="evenodd" d="M26 13C26 20.1797 20.1797 26 13 26C5.8203 26 0 20.1797 0 13C0 5.8203 5.8203 0 13 0C20.1797 0 26 5.8203 26 13ZM13.4659 9.59715C12.2014 10.1231 9.67431 11.2116 5.88455 12.8627C5.26915 13.1075 4.94678 13.3469 4.91743 13.581C4.86784 13.9766 5.36327 14.1324 6.03793 14.3445C6.1297 14.3734 6.22478 14.4033 6.32227 14.435C6.98602 14.6507 7.87889 14.9031 8.34306 14.9132C8.76411 14.9223 9.23404 14.7487 9.75286 14.3924C13.2938 12.0022 15.1216 10.7941 15.2363 10.7681C15.3173 10.7497 15.4295 10.7266 15.5055 10.7941C15.5815 10.8617 15.574 10.9897 15.566 11.024C15.5169 11.2332 13.5721 13.0413 12.5657 13.9769C12.252 14.2686 12.0294 14.4755 11.9839 14.5227C11.882 14.6286 11.7781 14.7287 11.6783 14.825C11.0617 15.4194 10.5992 15.8652 11.7039 16.5932C12.2348 16.943 12.6596 17.2323 13.0833 17.5209C13.5462 17.8361 14.0078 18.1504 14.6051 18.5419C14.7572 18.6417 14.9026 18.7453 15.0441 18.8462C15.5827 19.2302 16.0666 19.5752 16.6645 19.5202C17.0118 19.4882 17.3707 19.1616 17.5529 18.1874C17.9836 15.885 18.8301 10.8966 19.0257 8.84103C19.0429 8.66093 19.0213 8.43044 19.004 8.32927C18.9867 8.22809 18.9505 8.08393 18.819 7.97721C18.6632 7.85082 18.4228 7.82417 18.3152 7.82607C17.8263 7.83468 17.0761 8.09553 13.4659 9.59715Z" fill="#2269FE"/>
</svg>
